<svg width="35.000000" height="36.232422" viewBox="0 0 35 36.2324" fill="none" xmlns="http://www.w3.org/2000/svg" xmlns:xlink="http://www.w3.org/1999/xlink">
	<desc>
			Created with Pixso.
	</desc>
	<defs/>
	<path id="Vector" d="M31.14 13.64L31.12 13.62C31.12 13.62 31.12 13.62 31.12 13.62L17.5 0L3.87 13.62C3.87 13.62 3.87 13.62 3.87 13.62L3.85 13.64C1.77 15.74 0.44 18.47 0.09 21.4C-0.26 24.33 0.37 27.3 1.9 29.83C3.43 32.36 5.76 34.3 8.52 35.36C11.28 36.41 14.31 36.51 17.13 35.64C17.37 35.57 17.62 35.57 17.86 35.64C20.68 36.51 23.72 36.41 26.47 35.36C29.23 34.3 31.56 32.36 33.09 29.83C34.62 27.3 35.25 24.33 34.9 21.4C34.55 18.47 33.22 15.74 31.14 13.64ZM8.72 22.62C8.65 22.69 8.6 22.77 8.56 22.86C8.53 22.94 8.51 23.04 8.51 23.13C8.53 25.53 9.21 27.89 10.47 29.93C10.5 29.98 10.52 30.03 10.51 30.09C10.51 30.14 10.49 30.19 10.45 30.24C10.42 30.28 10.37 30.31 10.32 30.32C10.26 30.33 10.21 30.33 10.16 30.31C9.21 29.91 8.35 29.33 7.62 28.6C6.13 27.11 5.29 25.09 5.29 22.99C5.29 20.88 6.13 18.86 7.61 17.37L17.5 7.49L27.38 17.37C28.86 18.86 29.7 20.88 29.7 22.99C29.7 25.09 28.86 27.11 27.37 28.6C26.64 29.33 25.78 29.91 24.83 30.31C24.78 30.33 24.73 30.33 24.68 30.32C24.62 30.31 24.57 30.28 24.54 30.24C24.5 30.19 24.48 30.14 24.48 30.09C24.47 30.03 24.49 29.98 24.52 29.93C25.78 27.89 26.46 25.53 26.48 23.13C26.48 23.04 26.46 22.94 26.43 22.86C26.39 22.77 26.34 22.69 26.27 22.62L21.6 17.67C21.55 17.63 21.49 17.61 21.43 17.61C21.37 17.61 21.31 17.63 21.27 17.67C21.22 17.71 21.19 17.76 21.18 17.82C21.17 17.88 21.18 17.94 21.21 17.99C23.02 21.28 21.46 26 18.86 28.6L18.85 28.61C18.49 28.97 18 29.17 17.5 29.17C16.99 29.17 16.5 28.97 16.15 28.61L16.13 28.6C13.53 26 11.97 21.28 13.78 17.99C13.81 17.94 13.82 17.88 13.81 17.82C13.8 17.76 13.77 17.71 13.72 17.67C13.68 17.63 13.62 17.61 13.56 17.61C13.5 17.61 13.44 17.63 13.39 17.67L8.72 22.62Z" fill="#F53838" fill-opacity="1.000000" fill-rule="nonzero"/>
</svg>
